<?xml version="1.0" encoding="UTF-8" standalone="no"?>
<!-- Created with Inkscape (http://www.inkscape.org/) -->

<svg
   xmlns:dc="http://purl.org/dc/elements/1.1/"
   xmlns:cc="http://creativecommons.org/ns#"
   xmlns:rdf="http://www.w3.org/1999/02/22-rdf-syntax-ns#"
   xmlns:svg="http://www.w3.org/2000/svg"
   xmlns="http://www.w3.org/2000/svg"
   xmlns:sodipodi="http://sodipodi.sourceforge.net/DTD/sodipodi-0.dtd"
   xmlns:inkscape="http://www.inkscape.org/namespaces/inkscape"
   id="svg2"
   sodipodi:docname="placeholder_tap_to_take_photo.svg"
   viewBox="0 0 500 500"
   version="1.1"
   inkscape:version="0.92.5 (2060ec1f9f, 2020-04-08)">
  <defs
     id="defs25" />
  <title
     id="title3798">Placeholder</title>
  <sodipodi:namedview
     id="base"
     bordercolor="#666666"
     inkscape:pageshadow="2"
     inkscape:guide-bbox="true"
     pagecolor="#ffffff"
     inkscape:showpageshadow="false"
     inkscape:window-maximized="1"
     inkscape:zoom="1.294"
     inkscape:window-x="0"
     inkscape:window-height="836"
     showgrid="false"
     borderopacity="1.0"
     inkscape:current-layer="layer1"
     inkscape:cx="50.877692"
     inkscape:cy="247.01669"
     showguides="true"
     inkscape:window-y="27"
     inkscape:window-width="1600"
     showborder="false"
     inkscape:pageopacity="0.0"
     inkscape:document-units="px" />
  <g
     id="layer1"
     inkscape:label="Layer 1"
     inkscape:groupmode="layer"
     transform="translate(0 -552.36)">
    <g
       id="g3800">
      <rect
         id="rect2987"
         style="fill:#b3b3b3"
         rx="0"
         ry="0"
         height="500"
         width="500"
         y="552.36"
         x="0" />
      <path
         id="path3001"
         d="m3.9448 1048.4 492.12-492.09"
         style="stroke:#ffffff;stroke-width:7.8895;fill:#ffffff"
         inkscape:connector-curvature="0" />
      <path
         id="path3003"
         d="m3.9448 556.31 492.12 492.09"
         style="stroke:#ffffff;stroke-width:7.8895;fill:#ffffff"
         inkscape:connector-curvature="0" />
      <rect
         id="rect3773"
         style="fill:#b3b3b3"
         height="63.935"
         width="377.6"
         y="770.94"
         x="62.295" />
    </g>
    <g
       aria-label="Tap to take Photo"
       style="font-style:normal;font-variant:normal;font-weight:normal;font-stretch:normal;font-size:53.33333206px;line-height:125%;font-family:'Century Gothic';-inkscape-font-specification:'Century Gothic';text-align:start;letter-spacing:0px;word-spacing:0px;text-anchor:start;fill:#ffffff;fill-opacity:1;stroke:none;stroke-width:1px;stroke-linecap:butt;stroke-linejoin:miter;stroke-opacity:1"
       id="text834">
      <path
         d="m 26.341157,778.50582 h 21.171875 v 7.1875 h -6.979167 v 31.11979 h -7.395833 v -31.11979 h -6.796875 z"
         style=""
         id="path820" />
      <path
         d="m 72.66928,788.47978 h 7.083334 v 28.33333 H 72.66928 v -2.99479 q -2.083333,1.97917 -4.192708,2.86458 -2.083333,0.85938 -4.53125,0.85938 -5.494791,0 -9.505208,-4.24479 -4.010416,-4.27084 -4.010416,-10.59896 0,-6.5625 3.880208,-10.75521 3.880208,-4.19271 9.427083,-4.19271 2.552083,0 4.791667,0.96354 2.239583,0.96354 4.140624,2.89063 z m -7.473958,5.83333 q -3.307291,0 -5.494791,2.34375 -2.1875,2.31771 -2.1875,5.96354 0,3.67188 2.213541,6.04167 2.239584,2.36979 5.494792,2.36979 3.359375,0 5.572916,-2.31771 2.213542,-2.34375 2.213542,-6.11979 0,-3.69792 -2.213542,-5.98958 -2.213541,-2.29167 -5.598958,-2.29167 z"
         style=""
         id="path822" />
      <path
         d="m 93.997404,788.47978 v 3.125 q 1.927084,-1.92709 4.166667,-2.89063 2.239579,-0.96354 4.791669,-0.96354 5.54687,0 9.42708,4.19271 3.88021,4.19271 3.88021,10.75521 0,6.32812 -4.01042,10.59896 -4.01041,4.24479 -9.50521,4.24479 -2.44791,0 -4.557287,-0.85938 -2.109375,-0.88541 -4.192709,-2.86458 v 13.35937 h -7.057291 v -38.69791 z m 7.473956,5.83333 q -3.359372,0 -5.572914,2.29167 -2.213542,2.29166 -2.213542,5.98958 0,3.77604 2.213542,6.11979 2.213542,2.31771 5.572914,2.31771 3.25521,0 5.46875,-2.36979 2.23959,-2.36979 2.23959,-6.04167 0,-3.64583 -2.1875,-5.96354 -2.1875,-2.34375 -5.52084,-2.34375 z"
         style=""
         id="path824" />
      <path
         d="m 137.9297,778.03707 h 7.08333 v 10.44271 h 4.21875 v 6.11979 h -4.21875 v 22.21354 h -7.08333 v -22.21354 h -3.64583 v -6.11979 h 3.64583 z"
         style=""
         id="path826" />
      <path
         d="m 166.36719,787.75061 q 4.01042,0 7.52604,2.00521 3.54167,2.00521 5.52084,5.44271 1.97916,3.4375 1.97916,7.42187 0,4.01042 -2.0052,7.5 -1.97917,3.48959 -5.41667,5.46875 -3.4375,1.95313 -7.57812,1.95313 -6.09375,0 -10.41667,-4.32292 -4.29688,-4.34896 -4.29688,-10.54687 0,-6.64063 4.8698,-11.06771 4.27083,-3.85417 9.8177,-3.85417 z m 0.10417,6.69271 q -3.30729,0 -5.52083,2.31771 -2.1875,2.29166 -2.1875,5.88541 0,3.69792 2.16146,5.98959 2.1875,2.29166 5.52083,2.29166 3.33333,0 5.54687,-2.3177 2.21354,-2.31771 2.21354,-5.96355 0,-3.64583 -2.1875,-5.91145 -2.16145,-2.29167 -5.54687,-2.29167 z"
         style=""
         id="path828" />
      <path
         d="m 202.98178,778.03707 h 7.08333 v 10.44271 h 4.21875 v 6.11979 h -4.21875 v 22.21354 h -7.08333 v -22.21354 h -3.64584 v -6.11979 h 3.64584 z"
         style=""
         id="path830" />
      <path
         d="m 239.04948,788.47978 h 7.08333 v 28.33333 h -7.08333 v -2.99479 q -2.08333,1.97917 -4.19271,2.86458 -2.08333,0.85938 -4.53125,0.85938 -5.49479,0 -9.50521,-4.24479 -4.01041,-4.27084 -4.01041,-10.59896 0,-6.5625 3.88021,-10.75521 3.8802,-4.19271 9.42708,-4.19271 2.55208,0 4.79166,0.96354 2.23959,0.96354 4.14063,2.89063 z m -7.47396,5.83333 q -3.30729,0 -5.49479,2.34375 -2.1875,2.31771 -2.1875,5.96354 0,3.67188 2.21354,6.04167 2.23959,2.36979 5.49479,2.36979 3.35938,0 5.57292,-2.31771 2.21354,-2.34375 2.21354,-6.11979 0,-3.69792 -2.21354,-5.98958 -2.21354,-2.29167 -5.59896,-2.29167 z"
         style=""
         id="path832" />
      <path
         d="m 253.37241,777.54228 h 7.10937 v 22.63021 l 10.46875,-11.69271 h 8.90625 l -12.1875,13.59375 13.67188,14.73958 h -8.82813 l -12.03125,-13.04687 v 13.04687 h -7.10937 z"
         style=""
         id="path834" />
      <path
         d="M 312.64324,804.70374 H 289.8047 q 0.49479,3.02083 2.63021,4.8177 2.16146,1.77084 5.49479,1.77084 3.98437,0 6.84896,-2.78646 l 5.98958,2.8125 q -2.23958,3.17708 -5.36458,4.71354 -3.125,1.51042 -7.42188,1.51042 -6.66666,0 -10.85937,-4.19271 -4.19271,-4.21875 -4.19271,-10.54688 0,-6.48437 4.16667,-10.7552 4.1927,-4.29688 10.49479,-4.29688 6.69271,0 10.88541,4.29688 4.19271,4.27083 4.19271,11.30208 z m -7.13542,-5.59896 q -0.70312,-2.36979 -2.78645,-3.85417 -2.0573,-1.48437 -4.79167,-1.48437 -2.96875,0 -5.20833,1.66666 -1.40625,1.04167 -2.60417,3.67188 z"
         style=""
         id="path836" />
      <path
         d="m 334.07553,778.50582 h 7.73438 q 6.27604,0 9.03646,1.17187 2.78645,1.14584 4.375,3.75 1.61458,2.57813 1.61458,6.19792 0,4.01042 -2.10938,6.66667 -2.08333,2.65625 -5.67708,3.69791 -2.10937,0.59896 -7.68229,0.59896 v 16.22396 h -7.29167 z m 7.29167,14.97396 h 2.31771 q 2.73437,0 3.80208,-0.39063 1.06771,-0.39062 1.66667,-1.27604 0.625,-0.91146 0.625,-2.1875 0,-2.21354 -1.71875,-3.22917 -1.25,-0.7552 -4.63542,-0.7552 h -2.05729 z"
         style=""
         id="path838" />
      <path
         d="m 363.21615,777.54228 h 7.05729 v 13.80208 q 2.08333,-1.79687 4.19271,-2.68229 2.10937,-0.91146 4.27083,-0.91146 4.21875,0 7.10937,2.91667 2.47396,2.52604 2.47396,7.42187 v 18.72396 h -7.00521 v -12.42187 q 0,-4.92188 -0.46875,-6.66667 -0.46875,-1.74479 -1.61458,-2.60417 -1.11979,-0.85937 -2.78646,-0.85937 -2.16145,0 -3.72395,1.43229 -1.53646,1.43229 -2.13542,3.90625 -0.3125,1.27604 -0.3125,5.83333 v 11.38021 h -7.05729 z"
         style=""
         id="path840" />
      <path
         d="m 408.50262,787.75061 q 4.01041,0 7.52604,2.00521 3.54166,2.00521 5.52083,5.44271 1.97917,3.4375 1.97917,7.42187 0,4.01042 -2.00521,7.5 -1.97917,3.48959 -5.41667,5.46875 -3.4375,1.95313 -7.57812,1.95313 -6.09375,0 -10.41667,-4.32292 -4.29687,-4.34896 -4.29687,-10.54687 0,-6.64063 4.86979,-11.06771 4.27083,-3.85417 9.81771,-3.85417 z m 0.10416,6.69271 q -3.30729,0 -5.52083,2.31771 -2.1875,2.29166 -2.1875,5.88541 0,3.69792 2.16146,5.98959 2.1875,2.29166 5.52083,2.29166 3.33333,0 5.54688,-2.3177 2.21354,-2.31771 2.21354,-5.96355 0,-3.64583 -2.1875,-5.91145 -2.16146,-2.29167 -5.54688,-2.29167 z"
         style=""
         id="path842" />
      <path
         d="m 430.19532,778.03707 h 7.08334 v 10.44271 h 4.21875 v 6.11979 h -4.21875 v 22.21354 h -7.08334 v -22.21354 h -3.64583 v -6.11979 h 3.64583 z"
         style=""
         id="path844" />
      <path
         d="m 458.6328,787.75061 q 4.01042,0 7.52604,2.00521 3.54167,2.00521 5.52084,5.44271 1.97916,3.4375 1.97916,7.42187 0,4.01042 -2.0052,7.5 -1.97917,3.48959 -5.41667,5.46875 -3.4375,1.95313 -7.57813,1.95313 -6.09374,0 -10.41666,-4.32292 -4.29688,-4.34896 -4.29688,-10.54687 0,-6.64063 4.8698,-11.06771 4.27083,-3.85417 9.8177,-3.85417 z m 0.10417,6.69271 q -3.30729,0 -5.52083,2.31771 -2.1875,2.29166 -2.1875,5.88541 0,3.69792 2.16145,5.98959 2.1875,2.29166 5.52084,2.29166 3.33333,0 5.54687,-2.3177 2.21354,-2.31771 2.21354,-5.96355 0,-3.64583 -2.1875,-5.91145 -2.16145,-2.29167 -5.54687,-2.29167 z"
         style=""
         id="path846" />
    </g>
  </g>
  <metadata
     id="metadata22">
    <rdf:RDF>
      <cc:Work>
        <dc:format>image/svg+xml</dc:format>
        <dc:type
           rdf:resource="http://purl.org/dc/dcmitype/StillImage" />
        <cc:license
           rdf:resource="http://creativecommons.org/licenses/publicdomain/" />
        <dc:publisher>
          <cc:Agent
             rdf:about="http://openclipart.org/">
            <dc:title>Openclipart</dc:title>
          </cc:Agent>
        </dc:publisher>
        <dc:title>Placeholder</dc:title>
      </cc:Work>
      <cc:License
         rdf:about="http://creativecommons.org/licenses/publicdomain/">
        <cc:permits
           rdf:resource="http://creativecommons.org/ns#Reproduction" />
        <cc:permits
           rdf:resource="http://creativecommons.org/ns#Distribution" />
        <cc:permits
           rdf:resource="http://creativecommons.org/ns#DerivativeWorks" />
      </cc:License>
    </rdf:RDF>
  </metadata>
</svg>
